<svg width="92" height="50" viewBox="0 0 92 50" fill="none" xmlns="http://www.w3.org/2000/svg">
<g id="katman_1" clip-path="url(#clip0_5105_2369)">
<path id="Vector" d="M48.8086 25.2683L50.9092 22.7279C52.2309 23.9625 53.9538 24.651 55.7475 24.7222C57.2108 24.7222 58.0841 24.1287 58.0841 23.179V23.1315C58.0841 22.2293 57.5413 21.7545 54.8271 21.066C51.5464 20.235 49.4458 19.3091 49.4458 16.0802V16.0328C49.4458 13.0651 51.806 11.1182 55.1339 11.1182C57.3289 11.0708 59.453 11.8067 61.1524 13.1838L59.2878 15.8903C58.0841 14.9406 56.5972 14.3708 55.0631 14.2759C53.6942 14.2759 52.9861 14.9169 52.9861 15.7004V15.7479C52.9861 16.8162 53.6706 17.1724 56.4792 17.8846C59.7599 18.7393 61.6244 19.9264 61.6244 22.7754V22.8229C61.6244 26.0755 59.1698 27.8799 55.6767 27.8799C53.1749 27.8799 50.7203 26.9539 48.8086 25.2683Z" fill="#E5E5E5"/>
<path id="Vector_2" d="M63.418 25.2683L65.5185 22.7279C66.8402 23.9625 68.5632 24.651 70.3569 24.7222C71.8202 24.7222 72.6935 24.1287 72.6935 23.179V23.1315C72.6935 22.2293 72.1507 21.7545 69.4364 21.066C66.1558 20.235 64.0552 19.3091 64.0552 16.0802V16.0328C64.0552 13.0651 66.4154 11.1182 69.7433 11.1182C71.9382 11.0708 74.0624 11.8067 75.7617 13.1838L73.8972 15.8903C72.6935 14.9406 71.2066 14.3708 69.6725 14.2759C68.3036 14.2759 67.5955 14.9169 67.5955 15.7004V15.7479C67.5955 16.8162 68.2799 17.1724 71.0886 17.8846C74.3692 18.7393 76.2338 19.9264 76.2338 22.7754V22.8229C76.2338 26.0755 73.7792 27.8799 70.2861 27.8799C67.7607 27.8799 65.3297 26.9539 63.418 25.2683Z" fill="#E5E5E5"/>
<path id="Vector_3" d="M79.373 11.3082H82.9369V24.3661H91.0324V27.6425H79.373V11.3082Z" fill="#E5E5E5"/>
<path id="Vector_4" d="M48.3828 35.9046L49.1853 34.9311C49.7045 35.406 50.3654 35.6671 51.0498 35.6909C51.6163 35.6909 51.9467 35.4772 51.9467 35.0973V35.0736C51.9467 34.7175 51.7343 34.5513 50.6958 34.2664C49.4449 33.934 48.6188 33.6016 48.6188 32.3433V32.3196C48.6424 31.2274 49.5393 30.3727 50.625 30.4202C50.6722 30.4202 50.743 30.4202 50.7902 30.444C51.6399 30.4202 52.4423 30.7051 53.1032 31.2512L52.3951 32.2958C51.9231 31.9397 51.3566 31.7023 50.7666 31.6785C50.2474 31.6785 49.9641 31.9159 49.9641 32.2246V32.2483C49.9641 32.6519 50.2238 32.7944 51.3094 33.0793C52.5839 33.4117 53.292 33.8628 53.292 34.9549V34.9786C53.292 36.2369 52.3479 36.9254 51.0026 36.9254C50.0585 36.9017 49.1145 36.5456 48.3828 35.9046Z" fill="#E5E5E5"/>
<path id="Vector_5" d="M54.5195 30.5389H59.2163V31.7735H55.8648V33.0556H58.8151V34.2901H55.8648V35.6197H59.2635V36.8542H54.5195V30.5389Z" fill="#E5E5E5"/>
<path id="Vector_6" d="M60.2327 33.6942C60.2091 31.9136 61.6016 30.4653 63.3482 30.4178H63.4898C64.4102 30.3704 65.3071 30.7265 65.9444 31.3913L65.0711 32.4121C64.6463 31.9848 64.0798 31.7236 63.4662 31.6999C62.4513 31.7236 61.6252 32.5783 61.6488 33.5992V33.6705C61.578 34.6914 62.3805 35.5698 63.3954 35.641H63.4662C64.0798 35.641 64.6935 35.3799 65.1183 34.905L65.9916 35.7835C65.3543 36.5432 64.4102 36.9468 63.4426 36.8993C61.696 36.9231 60.2799 35.5223 60.2327 33.7892C60.2327 33.7654 60.2327 33.7417 60.2327 33.6942Z" fill="#E5E5E5"/>
<path id="Vector_7" d="M66.9826 34.1239V30.5389H68.3515V34.0765C68.3515 35.0973 68.8707 35.6197 69.6968 35.6197C70.5229 35.6197 71.0421 35.0973 71.0421 34.1239V30.5389H72.411V34.0765C72.5762 35.4535 71.6085 36.7355 70.2396 36.9017C70.0508 36.9255 69.862 36.9255 69.6732 36.9017C68.3043 37.0442 67.1006 36.047 66.959 34.67C66.959 34.5038 66.959 34.3139 66.9826 34.1239Z" fill="#E5E5E5"/>
<path id="Vector_8" d="M73.8262 30.5389H76.682C77.3428 30.4915 78.0037 30.7289 78.4993 31.18C78.8534 31.5598 79.0658 32.0821 79.0422 32.6045V32.6282C79.0894 33.5066 78.5465 34.3139 77.6969 34.575L79.231 36.8067H77.6261L76.2808 34.7887H75.1951V36.8067H73.8262V30.5389ZM76.5876 33.6016C77.2484 33.6016 77.6497 33.2455 77.6497 32.7232V32.6994C77.6497 32.1059 77.2484 31.7972 76.564 31.7972H75.1951V33.6016H76.5876Z" fill="#E5E5E5"/>
<path id="Vector_9" d="M80.293 30.5389H84.9897V31.7735H81.6383V33.0556H84.5885V34.2901H81.6383V35.6197H85.0369V36.8542H80.293V30.5389Z" fill="#E5E5E5"/>
<path id="Vector_10" d="M86.2656 30.5389H88.6966C90.4195 30.4202 91.8829 31.726 92.0009 33.4592V33.6966C92.0009 35.4297 90.6084 36.8305 88.8854 36.8542H86.2656V30.5389ZM88.6966 35.5722C89.6879 35.6197 90.514 34.8837 90.5848 33.8865V33.6728C90.632 32.6757 89.8767 31.821 88.8854 31.7735H87.6345V35.5484L88.6966 35.5722Z" fill="#E5E5E5"/>
<path id="Vector_11" d="M0.0236018 25.6246C0.0236018 39.9883 13.9487 47.277 19.92 49.7461L20.1324 49.8411C20.5808 50.0548 21.1001 50.0548 21.5249 49.8411L21.7373 49.7461C27.7322 47.277 41.6337 39.9883 41.6337 25.6246V6.39145C41.6337 5.65546 41.138 5.01443 40.43 4.84824L21.1945 0.0547921C20.9348 -0.016433 20.6752 -0.016433 20.4392 0.0547921L1.20369 4.84824C0.495639 5.01443 0 5.65546 0 6.39145M38.4946 25.6222C38.4946 37.8492 26.3869 44.3544 20.864 46.6811C15.3176 44.3544 3.23345 37.8492 3.23345 25.6222V7.62839L20.864 3.23618L38.4946 7.62839V25.6246V25.6222Z" fill="#E5E5E5"/>
<path id="Vector_12" d="M20.794 9.64625C17.2538 9.64625 14.3743 12.5427 14.3743 16.104V17.6947C13.1234 17.9084 12.2266 18.9767 12.2266 20.235V31.5361C12.2266 32.9606 13.3831 34.1239 14.7992 34.1239H26.9541C28.3702 34.1239 29.5267 32.9606 29.5267 31.5361V20.235C29.5267 18.9292 28.5354 17.8371 27.2609 17.6709V16.0802C27.1901 12.519 24.3343 9.64625 20.794 9.64625ZM20.794 12.4478C22.8002 12.4478 24.4287 14.0859 24.4287 16.104V17.6472H17.183V16.104C17.1593 14.0859 18.7879 12.4478 20.794 12.4478ZM26.6945 31.2987H15.0116V20.4725H26.6945V31.2987ZM23.0598 22.3718L24.9952 24.3186L22.0685 27.2626L20.1332 29.2094L18.1978 27.2626L16.7109 25.7669L18.6463 23.82L20.1332 25.3158L23.0598 22.3718Z" fill="#E5E5E5"/>
</g>
<defs>
<clipPath id="clip0_5105_2369">
<rect width="92" height="50" fill="white"/>
</clipPath>
</defs>
</svg>
